<svg width="149" height="127" viewBox="0 0 149 127" fill="none" xmlns="http://www.w3.org/2000/svg">
<path d="M51.2217 59.2529V63.3366C56.375 65.5854 61.9403 66.7511 67.5682 66.7605C73.1961 66.7699 78.7652 65.6227 83.9262 63.391V59.3234C78.8282 61.7843 73.2329 63.0571 67.5657 63.0449C61.8986 63.0327 56.3089 61.7358 51.2217 59.2529Z" fill="#2BC2BD"/>
<path d="M51.0929 66.3218V72.846H50.9995C50.5744 72.2326 50.0004 71.7357 49.3308 71.4015C48.5865 71.0517 47.7699 70.8805 46.9469 70.9019C45.4521 70.9019 44.2956 71.2222 43.4677 71.8627C42.6157 72.5463 41.9794 73.4591 41.6347 74.4923C41.206 75.7532 40.965 77.0696 40.9195 78.3998C40.84 79.8944 40.8003 81.4959 40.8003 83.2041C40.8003 84.1201 40.8003 85.097 40.8228 86.1411C40.8454 87.1852 40.8969 88.1781 40.9904 89.1262C41.0525 90.2043 41.3539 91.2555 41.873 92.2041C42.2567 92.8781 42.7753 93.4667 43.3968 93.9337C43.906 94.3092 44.4923 94.5684 45.1139 94.6927C45.6242 94.7948 46.1429 94.8506 46.6634 94.8593C47.9004 94.8593 48.8057 94.6778 49.3791 94.3148C50.0107 93.8843 50.5568 93.3413 50.9898 92.7134L51.0833 92.7614V94.5614H54.8492V67.6253C53.5863 67.2602 52.3343 66.8257 51.0929 66.3218ZM51.1412 87.5343C51.179 88.4845 50.8917 89.4194 50.3262 90.1863C49.7818 90.8813 48.9796 91.2304 47.9262 91.2304C47.2701 91.2673 46.6177 91.1101 46.0513 90.7788C45.5634 90.4218 45.2087 89.9137 45.043 89.3344C44.7941 88.5118 44.6576 87.6596 44.6371 86.8009C44.5877 85.7738 44.5641 84.5333 44.5662 83.0792C44.5662 81.4692 44.6135 80.1186 44.7079 79.0275C44.7651 78.1334 44.935 77.25 45.2137 76.398C45.3811 75.8324 45.7366 75.3401 46.222 75.0015C46.7407 74.7105 47.3313 74.5707 47.9262 74.598C49.0451 74.598 49.8612 74.93 50.3745 75.5941C50.9187 76.3691 51.1885 77.302 51.1412 78.246V87.5343Z" fill="#2BC2BD"/>
<path d="M63.7853 70.854C62.0135 70.854 60.6121 71.2181 59.5812 71.9462C58.5538 72.6706 57.7817 73.6981 57.3745 74.8832C57.1947 75.3823 57.0673 75.8986 56.9944 76.4238C56.8977 77.0387 56.8204 77.7049 56.756 78.4352C56.6916 79.1654 56.6529 79.9277 56.6368 80.7348C56.6207 81.542 56.6143 82.3363 56.6143 83.1274C56.6143 83.7263 56.6143 84.3765 56.6368 85.0683C56.6594 85.7601 56.6787 86.452 56.7077 87.131C56.7367 87.81 56.7882 88.4345 56.8526 89.0014C56.8988 89.4804 56.9785 89.9556 57.091 90.4235C57.2282 90.985 57.4452 91.5243 57.7353 92.0249C58.046 92.5757 58.4554 93.0653 58.9434 93.4694C59.4956 93.9212 60.1223 94.2744 60.7957 94.5136C61.6365 94.7975 62.5207 94.933 63.4084 94.9139C65.6892 94.9139 67.3912 94.3801 68.5144 93.3125C69.6376 92.2449 70.2626 90.6968 70.3893 88.6683L66.5783 87.9573C66.5738 88.8763 66.2982 89.7739 65.7858 90.5388C65.5392 90.8503 65.2199 91.0974 64.8556 91.2587C64.4913 91.42 64.093 91.4906 63.6951 91.4644C62.1595 91.4644 61.1662 90.7534 60.7152 89.3313C60.5214 88.5716 60.4133 87.7928 60.3931 87.0093C60.3458 85.9993 60.3222 84.9722 60.3222 83.9281H70.4248V78.1501C70.4248 75.8761 69.9029 74.091 68.8591 72.7949C67.8154 71.4989 66.1241 70.8519 63.7853 70.854ZM66.6846 80.9014H60.3866C60.4145 79.7953 60.4618 78.8633 60.5284 78.1053C60.5641 77.4935 60.6777 76.8886 60.8666 76.3053C61.0647 75.6905 61.4712 75.163 62.0167 74.8127C62.5017 74.5431 63.0492 74.404 63.6049 74.4092C64.1473 74.3861 64.686 74.5089 65.1641 74.7647C65.5581 74.9949 65.8821 75.3269 66.1015 75.7256C66.3388 76.1829 66.4926 76.6785 66.5558 77.1893C66.6371 77.7622 66.6769 78.3402 66.6749 78.9188L66.6846 80.9014Z" fill="#2BC2BD"/>
<path d="M79.3837 70.854C77.6119 70.854 76.2159 71.2181 75.1958 71.9462C74.1673 72.6702 73.3941 73.6978 72.9859 74.8832C72.806 75.3823 72.6787 75.8986 72.6057 76.4238C72.5123 77.0387 72.4318 77.7049 72.3673 78.4352C72.3029 79.1654 72.2675 79.9277 72.2514 80.7348C72.2353 81.542 72.2256 82.3363 72.2256 83.1274C72.2256 83.7263 72.2256 84.3765 72.2514 85.0683C72.2771 85.7601 72.29 86.452 72.3222 87.131C72.3544 87.81 72.3995 88.4345 72.464 89.0014C72.5101 89.4804 72.5898 89.9556 72.7024 90.4235C72.841 90.9846 73.0579 91.5236 73.3467 92.0249C73.6573 92.5766 74.068 93.0663 74.5579 93.4694C75.1097 93.9218 75.7365 94.2751 76.4103 94.5136C77.2498 94.7978 78.133 94.9333 79.0197 94.9139C81.3005 94.9139 83.0025 94.3801 84.1258 93.3125C85.249 92.2449 85.875 90.6968 86.0039 88.6683L82.1896 87.9573C82.1851 88.8763 81.9096 89.7739 81.3972 90.5388C81.1509 90.8508 80.8316 91.0981 80.4673 91.2595C80.1029 91.4208 79.7044 91.4912 79.3064 91.4644C77.7708 91.4644 76.7786 90.7534 76.3298 89.3313C76.1341 88.572 76.026 87.7929 76.0076 87.0093C75.9625 86.0004 75.9367 84.9722 75.9367 83.9281H86.0393V78.1501C86.0393 75.8761 85.5174 74.091 84.4737 72.7949C83.4299 71.4989 81.7333 70.8519 79.3837 70.854ZM82.2831 80.9014H75.9786C76.0108 79.7953 76.0592 78.8633 76.1236 78.1053C76.1527 77.494 76.261 76.889 76.4457 76.3053C76.6449 75.6901 77.0525 75.1626 77.599 74.8128C78.0828 74.5428 78.6293 74.4037 79.184 74.4092C79.7265 74.3858 80.2652 74.5086 80.7432 74.7647C81.1373 74.9949 81.4612 75.3269 81.6806 75.7256C81.9239 76.1814 82.0822 76.6773 82.1478 77.1893C82.2302 77.7621 82.2711 78.3401 82.2702 78.9188L82.2831 80.9014Z" fill="#2BC2BD"/>
<path d="M97.6948 72.8461H97.611C97.1879 72.2321 96.6148 71.7351 95.9455 71.4016C95.2012 71.0518 94.3846 70.8806 93.5616 70.9019C92.0669 70.9019 90.9103 71.2222 90.0824 71.8628C89.2304 72.5464 88.5941 73.4592 88.2494 74.4924C87.8207 75.7532 87.5798 77.0697 87.5342 78.3998C87.4548 79.8945 87.415 81.496 87.415 83.2041C87.415 84.1202 87.415 85.097 87.4376 86.1412C87.4601 87.1853 87.5085 88.1782 87.6051 89.1262C87.6656 90.2047 87.9671 91.2562 88.4878 92.2042C88.8705 92.8789 89.3893 93.4677 90.0116 93.9338C90.5207 94.3093 91.107 94.5685 91.7286 94.6928C92.2379 94.7947 92.7555 94.8505 93.2749 94.8594C94.5163 94.8594 95.4226 94.6779 95.9938 94.3149C96.6263 93.8854 97.1726 93.3423 97.6046 92.7135L97.7012 92.7615V94.5615H101.477V62.9492H97.6948V72.8461ZM97.7431 87.5344C97.7808 88.4846 97.4935 89.4194 96.9281 90.1864C96.3836 90.8814 95.5815 91.2305 94.5281 91.2305C93.8719 91.2679 93.2193 91.1108 92.6532 90.7789C92.1653 90.4219 91.8106 89.9138 91.6448 89.3344C91.3944 88.5122 91.2579 87.6599 91.2389 86.801C91.1895 85.7739 91.1648 84.5333 91.1648 83.0792C91.1648 81.4693 91.2132 80.1187 91.3098 79.0276C91.3669 78.1335 91.5369 77.2501 91.8156 76.3981C91.9818 75.8319 92.3376 75.3393 92.8239 75.0016C93.3426 74.7106 93.9332 74.5707 94.5281 74.598C95.6448 74.598 96.4599 74.9301 96.9732 75.5941C97.5201 76.368 97.7911 77.3015 97.7431 78.2461V87.5344Z" fill="#2BC2BD"/>
<path d="M115.329 83.9154C114.894 83.2807 114.338 82.7367 113.693 82.3139C112.815 81.7442 111.866 81.2898 110.871 80.9623C110.167 80.7423 109.485 80.4571 108.835 80.1103C108.398 79.8787 107.999 79.5841 107.649 79.236C107.382 78.9673 107.187 78.6372 107.079 78.2751C106.982 77.9279 106.934 77.5689 106.937 77.2085C106.939 76.8731 106.979 76.5389 107.057 76.2125C107.131 75.8662 107.277 75.539 107.485 75.2516C107.714 74.9503 108.018 74.714 108.368 74.5662C108.819 74.3785 109.306 74.2889 109.795 74.3035C110.169 74.2897 110.542 74.3567 110.888 74.4999C111.234 74.6431 111.545 74.8591 111.799 75.1331C112.304 75.6872 112.53 76.5808 112.465 77.8107L116.373 77.2886C116.373 75.2986 115.873 73.727 114.872 72.574C113.871 71.421 112.198 70.8477 109.853 70.8541C107.662 70.8541 106.018 71.4466 104.921 72.6316C103.823 73.8167 103.276 75.3413 103.278 77.2053C103.274 77.8756 103.354 78.5438 103.516 79.1943C103.684 79.8472 103.983 80.4595 104.396 80.9943C104.903 81.6281 105.516 82.1699 106.209 82.5958C107.145 83.1788 108.143 83.6558 109.186 84.0178C109.792 84.2463 110.382 84.5149 110.951 84.8218C111.345 85.0372 111.699 85.3178 111.998 85.6513C112.253 85.9539 112.433 86.3115 112.523 86.6954C112.624 87.154 112.672 87.6226 112.665 88.0919C112.665 89.262 112.443 90.1161 111.998 90.6542C111.554 91.1923 110.742 91.4613 109.569 91.4613C109.167 91.4847 108.766 91.4093 108.4 91.2417C108.034 91.0742 107.715 90.8196 107.472 90.5004C106.995 89.8599 106.773 89.0058 106.805 87.9382L102.939 88.5531C103.004 90.6051 103.582 92.1766 104.673 93.2677C105.764 94.3588 107.45 94.9033 109.73 94.9012C112.011 94.9012 113.665 94.2777 114.691 93.0307C115.718 91.7837 116.233 90.1172 116.238 88.031C116.241 87.2805 116.185 86.5308 116.07 85.789C115.955 85.1205 115.703 84.4827 115.329 83.9154Z" fill="#2BC2BD"/>
<path d="M44.1341 55.9606C43.6334 56.8672 42.8385 57.5784 41.8791 57.9784C41.0414 58.3687 40.133 58.5866 39.2085 58.619C37.7996 58.619 36.6861 58.3211 35.8678 57.7254C35.0334 57.1158 34.3909 56.2826 34.0155 55.3232C33.5759 54.2235 33.3013 53.0656 33.2004 51.8865C33.0802 50.5926 33.02 49.2303 33.02 47.7997V43.5175C33.0279 42.0066 33.1139 40.4971 33.2777 38.995C33.3496 37.8306 33.6797 36.6964 34.2442 35.6736C34.6629 34.9429 35.2315 34.3078 35.9129 33.8096C36.4743 33.4086 37.1142 33.1292 37.791 32.9896C38.3407 32.8801 38.8993 32.8211 39.4598 32.8135C40.7977 32.8135 41.7749 33.0089 42.3913 33.3996C43.0756 33.8577 43.6677 34.4388 44.1374 35.1131L44.2404 35.0619V33.1178H48.2995V60.2524C48.2961 61.2654 48.1881 62.2753 47.9774 63.2663C47.7859 64.2201 47.4 65.1248 46.8434 65.9247C46.2535 66.74 45.4625 67.3908 44.5465 67.8144C43.565 68.2991 42.2839 68.5414 40.7033 68.5414C38.4332 68.5414 36.6968 67.9884 35.4941 66.8824C34.2914 65.7763 33.6557 64.2176 33.587 62.2062L37.6654 61.4407C37.6536 62.3146 37.9147 63.1707 38.4128 63.8909C38.8788 64.5058 39.7143 64.8133 40.9191 64.8133C41.4495 64.8251 41.9741 64.7016 42.4429 64.4546C42.8584 64.2273 43.2121 63.903 43.4737 63.5097C43.736 63.1101 43.9288 62.6694 44.0439 62.2062C44.1647 61.721 44.2253 61.223 44.2243 60.7232V55.9606H44.1341ZM40.8192 36.7434C40.1134 36.7043 39.4118 36.8737 38.8026 37.2302C38.2722 37.6163 37.8813 38.1622 37.6879 38.7868C37.3984 39.6717 37.2336 40.5922 37.1983 41.5221C37.1274 42.626 37.092 43.9627 37.092 45.5321C37.092 47.1698 37.1177 48.5577 37.1693 49.6958C37.1929 50.6548 37.3324 51.6076 37.5849 52.5335C37.7448 53.1877 38.13 53.7656 38.6737 54.167C39.3212 54.5475 40.0686 54.726 40.8192 54.6794C41.2824 54.6868 41.7418 54.5948 42.166 54.4096C42.5902 54.2245 42.9692 53.9505 43.2772 53.6065C43.9422 52.9191 44.3059 51.9977 44.2888 51.0442V40.731C44.3303 39.706 44.0202 38.6974 43.4093 37.8708C42.8187 37.1213 41.951 36.7466 40.8063 36.7466L40.8192 36.7434Z" fill="#2BC2BD"/>
<path d="M58.6307 32.7619C59.8364 32.7152 61.0398 32.9012 62.1744 33.3096C63.0243 33.6392 63.7775 34.1755 64.365 34.8694C64.9287 35.5571 65.3334 36.3597 65.5505 37.2203C65.8011 38.182 65.9576 39.1656 66.0176 40.1573C66.0852 41.147 66.1368 42.2008 66.169 43.325C66.2012 44.4492 66.2205 45.4549 66.2205 46.3389C66.2215 48.2849 66.1193 50.2296 65.9145 52.1649C65.8037 53.331 65.4517 54.4618 64.8804 55.4862C64.4149 56.2847 63.7712 56.9662 62.9991 57.4784C62.2692 57.9481 61.4556 58.2743 60.6023 58.4393C59.7708 58.6066 58.9249 58.6924 58.0766 58.6955C57.1396 58.7153 56.2061 58.5766 55.3158 58.2855C54.597 58.0445 53.9256 57.6815 53.3314 57.2126C52.7899 56.7815 52.3343 56.2536 51.988 55.656C51.6568 55.0843 51.3971 54.4744 51.2149 53.84C51.0963 53.3356 51.0102 52.8243 50.9572 52.309C50.8895 51.6941 50.8444 51.0279 50.8283 50.2912C50.8122 49.5545 50.7961 48.8179 50.7767 48.0684C50.7574 47.3189 50.751 46.6207 50.751 45.9737C50.751 45.1218 50.7703 44.2442 50.8025 43.341C50.8347 42.4378 50.8895 41.5794 50.9572 40.7595C51.0248 39.9395 51.1118 39.2029 51.2149 38.5367C51.2884 37.9883 51.4279 37.4506 51.6304 36.9352C52.0812 35.6788 52.9317 34.6027 54.053 33.8701C55.1719 33.1313 56.6978 32.7619 58.6307 32.7619ZM58.5276 36.49C57.8775 36.4825 57.2362 36.6413 56.6656 36.9513C56.0536 37.3237 55.5963 37.9022 55.377 38.5815C55.1741 39.0555 55.0356 40.0484 54.9679 41.5602C54.9002 43.0719 54.8487 44.8495 54.8165 46.8865C54.8165 48.0076 54.8337 49.1029 54.868 50.1727C54.8749 51.0068 54.983 51.837 55.1902 52.6453C55.667 54.2083 56.7902 54.9887 58.5599 54.9866C59.2436 54.9959 59.9095 54.7695 60.4444 54.346C60.9953 53.9146 61.4192 53.3438 61.6718 52.6933C61.7708 52.3859 61.8387 52.0694 61.8748 51.7485C61.9424 51.2905 62.0004 50.746 62.0519 50.1182C62.1035 49.4905 62.1389 48.8211 62.155 48.1068C62.1711 47.3926 62.1808 46.6784 62.1808 45.9641C62.1808 45.2499 62.1808 44.5485 62.155 43.8502C62.1293 43.152 62.1196 42.4826 62.1035 41.8388C62.0874 41.1951 62.0519 40.6153 62.0004 40.1061C61.9681 39.6913 61.8914 39.2812 61.7717 38.8826C61.2713 37.2897 60.1878 36.4922 58.5212 36.49H58.5276Z" fill="#2BC2BD"/>
<path d="M76.4195 32.7622C77.626 32.7196 78.8294 32.91 79.9631 33.3227C80.813 33.6523 81.5662 34.1886 82.1537 34.8825C82.7177 35.5706 83.1234 36.3729 83.3425 37.2334C83.5904 38.1956 83.7458 39.179 83.8063 40.1704C83.874 41.1601 83.9255 42.2138 83.961 43.3381C83.9964 44.4623 84.0125 45.468 84.0125 46.352C84.0081 48.2982 83.9006 50.2429 83.6904 52.178C83.579 53.3436 83.2281 54.474 82.6595 55.4993C82.1915 56.297 81.547 56.9782 80.7749 57.4915C80.0455 57.962 79.2318 58.2882 78.3782 58.4524C77.5467 58.6198 76.7008 58.7056 75.8525 58.7086C74.9156 58.728 73.9821 58.5894 73.0917 58.2986C72.3729 58.0576 71.7015 57.6946 71.1073 57.2257C70.5659 56.7954 70.1112 56.2672 69.7671 55.6691C69.4332 55.0987 69.1734 54.4885 68.994 53.8531C68.8726 53.3491 68.7854 52.8377 68.733 52.3221C68.6654 51.7071 68.6235 51.0409 68.6042 50.3043C68.5848 49.5676 68.572 48.831 68.5526 48.0815C68.5333 47.332 68.5269 46.6338 68.5269 45.9868C68.5269 45.1349 68.5462 44.2573 68.5784 43.3541C68.6106 42.4509 68.6654 41.5925 68.733 40.7726C68.8007 39.9526 68.8877 39.216 68.994 38.5498C69.0651 38.0012 69.2035 37.4634 69.4063 36.9483C69.8602 35.6917 70.7142 34.6166 71.8385 33.8864C72.9661 33.1369 74.493 32.7622 76.4195 32.7622ZM76.3132 36.4903C75.663 36.4828 75.0218 36.6416 74.4512 36.9515C73.8401 37.3251 73.3831 37.9032 73.1626 38.5818C72.9596 39.0558 72.8211 40.0487 72.7534 41.5605C72.6858 43.0722 72.6342 44.8498 72.602 46.8868C72.602 48.0078 72.6192 49.1032 72.6536 50.173C72.6551 51.0064 72.7579 51.8366 72.9596 52.6456C73.4364 54.2086 74.5596 54.989 76.3293 54.9869C77.0131 54.9967 77.6792 54.7703 78.2139 54.3463C78.7647 53.9149 79.1887 53.344 79.4412 52.6936C79.5402 52.3861 79.6082 52.0696 79.6442 51.7488C79.7118 51.2908 79.7731 50.7463 79.8214 50.1185C79.8697 49.4908 79.9084 48.8214 79.9245 48.1071C79.9406 47.3929 79.9502 46.6786 79.9502 45.9644C79.9502 45.2502 79.9502 44.5487 79.9245 43.8505C79.8987 43.1523 79.889 42.4829 79.8729 41.8391C79.8568 41.1953 79.8214 40.6156 79.7731 40.1064C79.7391 39.6918 79.6624 39.2819 79.5443 38.8829C79.0514 37.291 77.9819 36.4903 76.3132 36.4903Z" fill="#2BC2BD"/>
<path d="M92.6462 58.6668C92.0857 58.6578 91.5271 58.5977 90.9775 58.4874C90.3083 58.3536 89.6769 58.0747 89.1284 57.6707C88.4574 57.1677 87.8971 56.5333 87.4822 55.8067C86.9237 54.7824 86.5992 53.6484 86.5319 52.4853C86.4288 51.4646 86.3686 50.3917 86.3515 49.2664C86.3343 48.1411 86.3257 47.0852 86.3257 46.0988C86.3257 44.2571 86.3676 42.5308 86.4545 40.9101C86.5061 39.4756 86.7654 38.056 87.2245 36.6951C87.5983 35.5812 88.286 34.5974 89.2057 33.8606C90.0948 33.1624 91.3448 32.8133 92.9555 32.8133C93.8449 32.7881 94.7277 32.9713 95.5327 33.3482C96.2544 33.7093 96.8728 34.2458 97.3303 34.9079H97.4334V24.5146H101.476V58.3593H97.4173V56.4184L97.3142 56.3672C96.8436 57.0407 96.2516 57.6217 95.5681 58.0807C94.956 58.4714 93.9821 58.6668 92.6462 58.6668ZM94.0121 54.7337C95.1504 54.7337 96.0095 54.359 96.5893 53.6095C97.2007 52.7819 97.5109 51.7721 97.4688 50.7461V40.7308C97.4688 39.5393 97.1928 38.5859 96.6409 37.8706C96.0889 37.1553 95.2095 36.7976 94.0025 36.7976C93.3603 36.7674 92.7226 36.9184 92.163 37.2332C91.6395 37.5984 91.2557 38.1289 91.0741 38.7386C90.7762 39.6586 90.5944 40.6118 90.5329 41.5763C90.4266 42.7518 90.3783 44.2059 90.3783 45.945C90.3783 47.5123 90.403 48.849 90.4524 49.955C90.4743 50.8824 90.6228 51.8026 90.8937 52.6903C91.0721 53.3153 91.4553 53.8631 91.9826 54.2469C92.5956 54.6057 93.302 54.7752 94.0121 54.7337Z" fill="#2BC2BD"/>
</svg>
