<svg width="20" height="18" viewBox="0 0 20 18" fill="none" xmlns="http://www.w3.org/2000/svg">
<path d="M20 7.87719C20 8.25229 19.8716 8.58238 19.6198 8.86246L13.5062 15.3343C13.2296 15.6143 12.8988 15.7544 12.5185 15.7544C12.1383 15.7544 11.8074 15.6193 11.5309 15.3493C11.2543 15.0792 11.116 14.7441 11.116 14.349V11.2531C9.12593 11.2781 7.68889 11.3932 6.80988 11.6032C5.69877 11.8833 4.98272 12.3984 4.65679 13.1487C4.33086 13.8989 4.39012 15.0342 4.82963 16.5596C4.92346 16.8897 4.88395 17.1848 4.70617 17.4548C4.53333 17.7249 4.29136 17.895 3.97531 17.965C3.65926 18.035 3.3679 17.975 3.09136 17.7899C2.28148 17.1798 1.61975 16.4646 1.11111 15.6443C0.37037 14.454 0 13.1186 0 11.6382C0 9.7377 0.533333 8.23729 1.59506 7.13698C2.51852 6.17672 3.88642 5.48652 5.69383 5.06141C7.10617 4.71131 8.91358 4.52626 11.1111 4.50125V1.40539C11.1111 1.00528 11.2494 0.675188 11.5259 0.405113C11.8025 0.135037 12.1333 0 12.5136 0C12.8938 0 13.2247 0.140039 13.5012 0.420117L19.6148 6.89191C19.8716 7.17199 20 7.50208 20 7.87719ZM18.8889 7.87719C18.8889 7.80717 18.8642 7.73715 18.8198 7.66713L12.7062 1.19533C12.6123 1.12531 12.5086 1.11531 12.3951 1.16032C12.2765 1.20533 12.2222 1.29036 12.2222 1.40539V5.62656C9.95556 5.62656 8.18272 5.73159 6.90864 5.94165C5.10123 6.22173 3.72346 6.77188 2.77531 7.59211C1.6642 8.53237 1.10617 9.87774 1.10617 11.6382C1.10617 12.8336 1.39753 13.9139 1.97531 14.8741C2.41481 15.6493 3.00247 16.3145 3.74815 16.8797C3.19506 14.8391 3.21481 13.3037 3.81728 12.2734C4.37037 11.3582 5.42716 10.748 6.97778 10.4429C8.08889 10.2328 9.83704 10.1278 12.2222 10.1278V14.349C12.2222 14.469 12.2815 14.549 12.3951 14.5941C12.5086 14.6391 12.6123 14.6291 12.7062 14.559L18.8198 8.08725C18.8642 8.01723 18.8889 7.94721 18.8889 7.87719Z" fill="black"/>
</svg>
