<svg width="29" height="23" viewBox="0 0 29 23" fill="none" xmlns="http://www.w3.org/2000/svg">
<path d="M11.9158 13.7936C12.6698 14.8414 13.05 15.9978 13.05 17.25V22.6422C13.05 22.7317 13.0113 22.8147 12.934 22.8914C12.8631 22.9617 12.7793 23 12.6891 23H11.9673C11.8771 23 11.7933 22.9617 11.716 22.885C11.6387 22.8147 11.6 22.7317 11.6 22.6422V17.25C11.6 16.2917 11.31 15.4228 10.7364 14.6433L8.79022 12.0367C8.66778 11.8578 8.51311 11.7556 8.31333 11.7236C8.11356 11.6981 7.93311 11.7428 7.772 11.8578C7.60444 11.9792 7.51422 12.1325 7.50133 12.3306C7.48844 12.5286 7.52711 12.7011 7.61733 12.8481L9.02222 14.8222C9.32511 15.2439 9.41533 15.6719 9.29289 16.1C9.17044 16.5344 8.90622 16.8858 8.50022 17.1542C8.09422 17.4225 7.64311 17.5375 7.16622 17.4928C6.68289 17.4481 6.24467 17.1861 5.85156 16.7069L2.9 13.2058V6.51667C2.9 6.19083 2.77756 5.96083 2.53911 5.84583C2.29422 5.72444 2.05578 5.72444 1.81733 5.84583C1.57244 5.96722 1.45644 6.17806 1.45644 6.47194V14.1067C1.45644 14.2856 1.51444 14.4389 1.63689 14.5539L6.438 20.5722C6.88911 21.1089 7.15978 21.7861 7.25644 22.5911C7.25644 22.7125 7.21778 22.8083 7.14044 22.885C7.06311 22.9617 6.97933 23 6.88911 23H6.16089C6.07067 23 5.98689 22.9681 5.90956 22.9106C5.83867 22.8531 5.8 22.7764 5.8 22.6869C5.70978 22.1758 5.55511 21.7733 5.34889 21.4731L0.502667 15.4547C0.167556 15.065 0 14.6178 0 14.1067V6.46556C0 5.865 0.219111 5.36028 0.657333 4.93861C1.09556 4.52333 1.61111 4.3125 2.19756 4.3125C2.784 4.3125 3.29311 4.53611 3.71844 4.98333C4.14378 5.43056 4.35 5.95444 4.35 6.555V12.7075L7.15978 15.985C7.25 16.1064 7.37244 16.1511 7.52067 16.1192C7.66889 16.0936 7.77844 16.0169 7.83644 15.8956C7.89444 15.7742 7.88156 15.64 7.79133 15.4931L6.47667 13.7425C6.17378 13.3208 6.032 12.8544 6.04489 12.3306C6.05778 11.8067 6.23178 11.3658 6.56689 11.0081C7.10822 10.4394 7.74622 10.1967 8.468 10.2925C9.09956 10.3819 9.60222 10.6822 9.96311 11.1933L11.9158 13.7936ZM20.3258 5.75C20.3387 6.13972 20.1969 6.46556 19.894 6.74028L15.544 11.0975C15.2733 11.3658 14.9318 11.5 14.5258 11.5C14.1198 11.5 13.7782 11.3658 13.5076 11.0975L9.15756 6.74028C8.85467 6.47194 8.70644 6.13972 8.70644 5.75C8.70644 5.36028 8.85467 5.03444 9.15756 4.75972L13.5076 0.4025C13.7782 0.134167 14.1133 0 14.5258 0C14.9382 0 15.2733 0.134167 15.544 0.4025L19.894 4.75972C20.1647 5.03444 20.3064 5.36028 20.3258 5.75ZM18.8951 5.75L14.5 1.4375L10.15 5.75L14.5451 10.0625L18.8951 5.75ZM29 14.1067C29 14.6178 28.8453 15.065 28.5489 15.4547L23.7027 21.4731C23.4578 21.7733 23.3096 22.1758 23.2516 22.6869C23.2193 22.7764 23.1742 22.8531 23.1162 22.9106C23.0453 22.9681 22.9744 23 22.8842 23H22.1624C22.04 23 21.9433 22.9617 21.866 22.885C21.7887 22.8083 21.7693 22.7125 21.7951 22.5911C21.8531 21.7797 22.1109 21.1089 22.5684 20.5722L27.4147 14.5539C27.5049 14.4325 27.55 14.2856 27.55 14.1067V6.46556C27.55 6.16528 27.4276 5.95444 27.1891 5.83944C26.9442 5.71806 26.7058 5.71806 26.4673 5.83944C26.2224 5.96083 26.1064 6.18444 26.1064 6.51028V13.2058L23.1613 16.7069C22.7682 17.1542 22.33 17.4097 21.8467 17.4736C21.3633 17.5375 20.9187 17.4289 20.5127 17.1606C20.1067 16.8922 19.8424 16.5408 19.72 16.1064C19.5976 15.6719 19.6878 15.2311 19.9907 14.7839L21.3956 12.8544C21.518 12.7075 21.5631 12.535 21.5309 12.3369C21.4987 12.1453 21.402 11.9856 21.2344 11.8642C21.0669 11.7428 20.8864 11.6981 20.6931 11.73C20.4933 11.7619 20.3387 11.8642 20.2162 12.0431L18.27 14.6497C17.6836 15.4228 17.4 16.2917 17.4 17.25V22.6422C17.4 22.7317 17.3613 22.8147 17.284 22.8914C17.2131 22.9617 17.1293 23 17.0391 23H16.3173C16.2271 23 16.1433 22.9617 16.066 22.885C15.9887 22.8083 15.95 22.7253 15.95 22.6358V17.25C15.95 15.9658 16.3431 14.8094 17.1293 13.7936L19.0304 11.1869C19.3913 10.6758 19.894 10.3756 20.5256 10.2861C21.2473 10.1967 21.8853 10.4394 22.4267 11.0017C22.7618 11.3594 22.9293 11.8067 22.9487 12.3242C22.9616 12.8481 22.8198 13.3208 22.5169 13.7361L21.2022 15.4867C21.112 15.64 21.0927 15.7742 21.1571 15.8892C21.2151 16.0106 21.3247 16.0872 21.4729 16.1128C21.6211 16.1447 21.7436 16.1 21.8338 15.9786L24.6436 12.7011V6.54861C24.6436 5.94806 24.8562 5.42417 25.2751 4.97694C25.7004 4.52972 26.2031 4.30611 26.796 4.30611C27.3889 4.30611 27.898 4.51694 28.3362 4.93222C28.7809 5.36028 29 5.87139 29 6.46556V14.1067Z" fill="black"/>
</svg>
