<svg width="27" height="27" viewBox="0 0 27 27" fill="none" xmlns="http://www.w3.org/2000/svg">
<path d="M15.8747 5.27104L21.7231 11.1194C21.8655 11.2244 21.933 11.3668 21.933 11.5393C21.933 11.7192 21.8655 11.8767 21.7231 12.0117L7.43953 26.3102L1.4337 26.9925C1.01381 27.03 0.661412 26.9025 0.376491 26.6251C0.09157 26.3402 -0.0283967 25.9953 0.00909286 25.5679L0.691403 19.5546L14.9824 5.27104C15.1249 5.12858 15.2824 5.06109 15.4548 5.06109C15.6273 5.06109 15.7697 5.12858 15.8747 5.27104ZM26.2593 3.89892L23.0952 0.734796C22.6078 0.247431 22.008 0 21.3032 0C20.5984 0 19.9985 0.247431 19.5112 0.734796L17.0893 3.15662C16.9469 3.29908 16.8794 3.45654 16.8794 3.62899C16.8794 3.80894 16.9469 3.9439 17.0893 4.04888L22.9377 9.89725C23.0427 10.0397 23.1852 10.1072 23.3576 10.1072C23.5301 10.1072 23.6875 10.0397 23.83 9.89725L26.2518 7.47542C26.7467 6.98056 26.9866 6.38823 26.9866 5.68342C27.0016 4.99361 26.7542 4.39378 26.2593 3.89892Z" fill="black"/>
</svg>
