<svg width="36" height="27" viewBox="0 0 36 27" fill="none" xmlns="http://www.w3.org/2000/svg">
<path d="M35.02 0.98C35.67 1.64 36 2.44 36 3.38V23.63C36 24.57 35.67 25.37 35.02 26.02C34.36 26.67 33.56 27 32.62 27H3.38C2.44 27 1.65 26.67 0.99 26.02C0.33 25.36 0 24.56 0 23.62V3.38C0 2.44 0.33 1.65 0.98 0.99C1.64 0.33 2.44 0 3.38 0H32.63C33.56 0 34.36 0.33 35.02 0.98ZM33.75 3.38C33.75 3.05 33.64 2.78 33.43 2.57C33.22 2.36 32.95 2.25 32.62 2.25H3.38C3.05 2.25 2.78 2.36 2.57 2.57C2.36 2.78 2.25 3.05 2.25 3.38V23.63C2.25 23.96 2.36 24.23 2.57 24.44C2.78 24.65 3.05 24.76 3.38 24.76H32.63C32.96 24.76 33.23 24.65 33.44 24.44C33.65 24.23 33.76 23.96 33.76 23.63V3.38H33.75ZM5.1 10.65C4.33 9.88 3.94 8.95 3.94 7.87C3.94 6.79 4.33 5.87 5.1 5.09C5.87 4.31 6.8 3.93 7.88 3.93C8.96 3.93 9.88 4.32 10.66 5.09C11.44 5.86 11.82 6.79 11.82 7.87C11.82 8.95 11.43 9.87 10.66 10.65C9.89 11.43 8.96 11.81 7.88 11.81C6.8 11.81 5.87 11.43 5.1 10.65ZM23.62 7.31C24.09 7.31 24.49 7.48 24.82 7.8L31.01 13.99C31.34 14.32 31.5 14.72 31.5 15.19V21.66C31.5 21.9 31.42 22.09 31.25 22.26C31.09 22.43 30.89 22.51 30.65 22.51H5.34C5.11 22.51 4.91 22.43 4.74 22.26C4.58 22.1 4.49 21.9 4.49 21.66V19.69C4.49 19.22 4.65 18.82 4.98 18.49L11.17 12.3C11.5 11.97 11.9 11.81 12.37 11.81C12.84 11.81 13.24 11.98 13.57 12.3L15.75 14.48L22.43 7.8C22.76 7.48 23.16 7.31 23.62 7.31ZM6.68 6.68C6.35 7.01 6.19 7.41 6.19 7.88C6.19 8.35 6.35 8.75 6.68 9.08C7.01 9.41 7.41 9.57 7.88 9.57C8.35 9.57 8.75 9.41 9.08 9.08C9.41 8.75 9.57 8.35 9.57 7.88C9.57 7.41 9.41 7.01 9.08 6.68C8.75 6.35 8.35 6.19 7.88 6.19C7.41 6.19 7.01 6.35 6.68 6.68ZM29.25 15.4L23.63 9.78L15.75 17.66L12.37 14.28L6.75 19.9V20.25H29.25V15.4Z" fill="black"/>
</svg>
