<svg width="14" height="17" viewBox="0 0 14 17" fill="none" xmlns="http://www.w3.org/2000/svg">
<path d="M13.8704 16.8651C13.7822 16.9514 13.6837 17 13.5593 17H0.435556C0.311111 17 0.212593 16.9568 0.124444 16.8651C0.0414815 16.7787 0 16.6708 0 16.5467V16.2444C0 16.1149 0.0414815 16.0124 0.12963 15.9206C0.212593 15.8289 0.316296 15.7857 0.440741 15.7857H13.5644C13.6837 15.7857 13.7874 15.8289 13.8756 15.9206C13.9585 16.007 14.0052 16.1149 14.0052 16.2444V16.5467C14 16.6708 13.9585 16.7787 13.8704 16.8651ZM12.8333 8.47841C12.8333 8.36508 12.797 8.25714 12.7244 8.1546L12.4341 7.89016C12.3615 7.78762 12.263 7.73905 12.1437 7.73905C12.0193 7.73905 11.9104 7.78762 11.817 7.89016L7.62222 12.294V0.453333C7.62222 0.329206 7.58074 0.22127 7.49259 0.129524C7.40444 0.0431746 7.30074 0 7.18148 0H6.81852C6.69407 0 6.59556 0.0431746 6.50741 0.134921C6.41926 0.226667 6.37778 0.329206 6.37778 0.45873V12.2994L2.18296 7.89556C2.08444 7.79302 1.97556 7.74444 1.8563 7.74444C1.73185 7.74444 1.63852 7.79302 1.56593 7.89556L1.27556 8.16C1.20296 8.26254 1.16667 8.37048 1.16667 8.48381C1.16667 8.59714 1.21333 8.70508 1.31185 8.80762L6.67333 14.4635C6.77185 14.539 6.88074 14.5768 7 14.5768C7.11926 14.5768 7.22815 14.5283 7.32667 14.4257L12.7244 8.80762C12.797 8.70508 12.8333 8.59714 12.8333 8.47841Z" fill="#333333"/>
</svg>
