<svg id="Vector_2" data-name="Vector 2" xmlns="http://www.w3.org/2000/svg" xmlns:xlink="http://www.w3.org/1999/xlink" viewBox="0 0 1000 1000" width="100" height="100">
  <defs>
    <style>
      .cls-1 {
        fill: url(#linear-gradient);
      }
    </style>
    <linearGradient id="linear-gradient" x1="10" y1="271.5" x2="990" y2="271.5" gradientUnits="userSpaceOnUse">
      <stop offset="0" stop-color="#fff"/>
      <stop offset="0.11" stop-color="#ececec"/>
      <stop offset="0.32" stop-color="#bababa"/>
      <stop offset="0.63" stop-color="#696969"/>
      <stop offset="1"/>
    </linearGradient>
  </defs>
  <title>GDD-Spinning</title>
  <path class="cls-1" d="M970,526.48a20,20,0,0,1-20-20A450.2,450.2,0,0,0,85.28,331.33,447.35,447.35,0,0,0,49.92,506.52a20,20,0,1,1-39.92,0A490.12,490.12,0,0,1,951.48,315.78,486.94,486.94,0,0,1,990,506.52,20,20,0,0,1,970,526.48Z">
  <animateTransform attributeName="transform"
        attributeType="XML"
        type="rotate"
        from="0 510 510"
        to="360 510 510"
        dur="0.9s"
        repeatCount="indefinite"
        values="0 510 510; 60 510 510; 120 510 510; 180 510 510; 240 510 510; 300 510 510; 360 510 510"
        keyTimes="0; 0.30; 0.38; 0.45; 0.53; 0.60; 1"
        />
  </path>
  <g>
    <path d="M347.78,497.41V524a264.86,264.86,0,0,0,212.07.36V497.87A241.72,241.72,0,0,1,347.78,497.41Z"/>
    <path d="M346.94,543.51v42.55h-.6a28.92,28.92,0,0,0-10.82-9.42,34.11,34.11,0,0,0-15.46-3.26c-9.69,0-17.19,2.09-22.56,6.27a37.09,37.09,0,0,0-11.89,17.15A88.82,88.82,0,0,0,281,622.28q-.78,14.63-.78,31.34c0,6,0,12.34.15,19.15s.48,13.29,1.09,19.47a47.66,47.66,0,0,0,5.72,20.08A37.1,37.1,0,0,0,297,723.6a27.89,27.89,0,0,0,11.13,4.95,55.68,55.68,0,0,0,10.05,1.08q12,0,17.61-3.55a40.36,40.36,0,0,0,10.45-10.44l.6.31v11.74H371.3V552A245.26,245.26,0,0,1,346.94,543.51Zm.32,138.35a27.46,27.46,0,0,1-5.29,17.3c-3.53,4.53-8.73,6.81-15.56,6.81a21.62,21.62,0,0,1-12.16-3,17.76,17.76,0,0,1-6.54-9.42,63,63,0,0,1-2.63-16.52q-.48-10.05-.46-24.28,0-15.75.92-26.42a69.55,69.55,0,0,1,3.28-17.15,17,17,0,0,1,6.54-9.11,20.5,20.5,0,0,1,11.05-2.63q10.89,0,15.88,6.49a27.85,27.85,0,0,1,5,17.3Z"/>
    <path d="M429.25,573.07q-17.24,0-27.26,7.12a38.94,38.94,0,0,0-14.31,19.16,50.28,50.28,0,0,0-2.47,10c-.62,4-1.12,8.36-1.54,13.12s-.67,9.74-.77,15-.15,10.45-.15,15.61c0,3.9,0,8.14.15,12.65s.27,9,.45,13.46.53,8.5.94,12.2a67.67,67.67,0,0,0,1.55,9.27A39.88,39.88,0,0,0,390,711.15a33.81,33.81,0,0,0,7.83,9.42,40.38,40.38,0,0,0,12,6.81A49.52,49.52,0,0,0,426.8,730q22.18,0,33.11-10.45t12.16-30.29l-24.71-4.63a30.66,30.66,0,0,1-5.14,16.83,15.9,15.9,0,0,1-13.56,6q-14.93,0-19.32-13.91a68.61,68.61,0,0,1-2.09-15.15q-.45-9.87-.46-20.09H472.3V620.65q0-22.24-10.15-34.92T429.25,573.07Zm18.8,65.53H407.21q.27-10.83.92-18.24a47.44,47.44,0,0,1,2.19-11.74,18.19,18.19,0,0,1,7.46-9.73,20.65,20.65,0,0,1,10.3-2.63,19.64,19.64,0,0,1,10.11,2.31,16.56,16.56,0,0,1,6.08,6.27,28.36,28.36,0,0,1,2.94,9.55,78.7,78.7,0,0,1,.78,11.28Z"/>
    <path d="M530.39,573.07q-17.24,0-27.15,7.12a38.88,38.88,0,0,0-14.33,19.16,50.28,50.28,0,0,0-2.47,10c-.6,4-1.13,8.36-1.54,13.12s-.65,9.74-.75,15S484,648,484,653.12c0,3.9,0,8.14.17,12.65s.25,9,.45,13.46.51,8.5.92,12.2a67.67,67.67,0,0,0,1.55,9.27,40.58,40.58,0,0,0,4.18,10.45,33.4,33.4,0,0,0,7.85,9.42,40,40,0,0,0,12,6.81A49.4,49.4,0,0,0,528,730q22.19,0,33.11-10.45t12.18-30.29l-24.73-4.63a30.66,30.66,0,0,1-5.14,16.83,15.89,15.89,0,0,1-13.56,6q-14.92,0-19.3-13.91a67.37,67.37,0,0,1-2.09-15.15c-.29-6.58-.46-13.28-.46-20.09h65.51V620.65q0-22.24-10.15-34.92T530.39,573.07Zm18.8,65.53H508.31q.31-10.83.94-18.24a46.39,46.39,0,0,1,2.09-11.74,18.22,18.22,0,0,1,7.48-9.73,20.55,20.55,0,0,1,10.28-2.63,19.45,19.45,0,0,1,10.11,2.31,16.49,16.49,0,0,1,6.08,6.27,27.93,27.93,0,0,1,3,9.55,78.71,78.71,0,0,1,.79,11.28Z"/>
    <path d="M649.13,586.06h-.55a28.75,28.75,0,0,0-10.79-9.42,34.14,34.14,0,0,0-15.46-3.26c-9.7,0-17.19,2.09-22.56,6.27a37,37,0,0,0-11.89,17.15,89.18,89.18,0,0,0-4.64,25.48q-.76,14.63-.77,31.34c0,6,0,12.34.15,19.15s.46,13.29,1.08,19.47a47.48,47.48,0,0,0,5.73,20.08,36.6,36.6,0,0,0,9.88,11.28,27.89,27.89,0,0,0,11.13,4.95,55.36,55.36,0,0,0,10,1.08q12.07,0,17.63-3.55a39.87,39.87,0,0,0,10.44-10.44l.63.31v11.74h24.48V521.51H649.13Zm.31,95.8a27.45,27.45,0,0,1-5.28,17.3c-3.53,4.53-8.74,6.81-15.57,6.81a21.57,21.57,0,0,1-12.15-3,17.66,17.66,0,0,1-6.54-9.42,61.29,61.29,0,0,1-2.63-16.52q-.48-10.05-.48-24.28,0-15.75.94-26.42A69.55,69.55,0,0,1,611,609.23a16.85,16.85,0,0,1,6.53-9.11,20.55,20.55,0,0,1,11.05-2.63q10.88,0,15.86,6.49a27.66,27.66,0,0,1,5,17.3Z"/>
    <path d="M763.48,658.25a38.66,38.66,0,0,0-10.62-10.44,78.59,78.59,0,0,0-18.3-8.82,76.37,76.37,0,0,1-13.2-5.55,32.27,32.27,0,0,1-7.68-5.7,15,15,0,0,1-3.7-6.27,25.21,25.21,0,0,1-.92-7,28.93,28.93,0,0,1,.77-6.49,16.78,16.78,0,0,1,2.78-6.27,14,14,0,0,1,5.72-4.47,22.12,22.12,0,0,1,9.26-1.71,16.78,16.78,0,0,1,13,5.41c3.28,3.61,4.74,9.44,4.32,17.46L770.24,615q0-19.46-9.73-30.74T728,573.07q-21.3,0-32,11.59t-10.65,29.83a52.48,52.48,0,0,0,1.54,13,32.41,32.41,0,0,0,5.71,11.74,45.83,45.83,0,0,0,11.76,10.45,96,96,0,0,0,19.3,9.27,93.13,93.13,0,0,1,11.45,5.25,25.56,25.56,0,0,1,6.79,5.41,16.46,16.46,0,0,1,3.4,6.81,40.34,40.34,0,0,1,.92,9.1q0,11.46-4.32,16.72t-15.75,5.26a15.88,15.88,0,0,1-13.6-6.27q-4.63-6.26-4.33-16.71l-25.06,4q.61,20.09,11.23,30.75t32.8,10.65q22.19,0,32.17-12.19t10-32.61a93,93,0,0,0-1.09-14.63A32.46,32.46,0,0,0,763.48,658.25Z"/>
    <path d="M301.82,475.93a29.75,29.75,0,0,1-14.62,13.16,44.39,44.39,0,0,1-17.32,4.18q-13.69,0-21.66-5.83a35.38,35.38,0,0,1-12-15.66,78.73,78.73,0,0,1-5.28-22.42q-1.17-12.66-1.17-26.65V394.78a288,288,0,0,1,1.67-29.5,51.52,51.52,0,0,1,6.26-21.66,39.39,39.39,0,0,1,10.82-12.16,32.15,32.15,0,0,1,12.18-5.34A58.8,58.8,0,0,1,271.51,325q13,0,19,3.82A43,43,0,0,1,301.85,340l.66-.34V327h26.32v177a96.85,96.85,0,0,1-2.08,19.65,46.63,46.63,0,0,1-7.36,17.34,38.08,38.08,0,0,1-14.89,12.32Q294.95,558,279.58,558q-22.08,0-33.78-10.82t-12.37-30.5l26.45-5a27.62,27.62,0,0,0,4.84,16q4.54,6,16.26,6a20.11,20.11,0,0,0,9.88-2.34,19,19,0,0,0,6.68-6.16,27.88,27.88,0,0,0,3.7-8.5,39.93,39.93,0,0,0,1.17-9.67V475.93ZM280.33,350.6a23.23,23.23,0,0,0-13.08,3.17A19.84,19.84,0,0,0,260,363.93a66,66,0,0,0-3.17,17.84q-.69,10.78-.69,26.15,0,16,.5,27.15a77.72,77.72,0,0,0,2.7,18.51,18.75,18.75,0,0,0,7.06,10.66,24.39,24.39,0,0,0,13.91,3.34,20.88,20.88,0,0,0,15.94-7,23.5,23.5,0,0,0,6.56-16.71V376.61A29.45,29.45,0,0,0,297.12,358q-5.75-7.33-16.87-7.33Z"/>
    <path d="M395.83,324.63a60.5,60.5,0,0,1,23,3.58A35.25,35.25,0,0,1,433,338.38a39.55,39.55,0,0,1,7.69,15.33,100.08,100.08,0,0,1,3,19.16c.44,6.45.78,13.32,1,20.66s.33,13.89.33,19.65a362.64,362.64,0,0,1-2,38,55.49,55.49,0,0,1-6.71,21.66,39.41,39.41,0,0,1-12.2,13,44,44,0,0,1-15.54,6.26,84.21,84.21,0,0,1-16.38,1.67,53.59,53.59,0,0,1-17.9-2.67,42.62,42.62,0,0,1-12.87-7A36.1,36.1,0,0,1,352.75,474a52.71,52.71,0,0,1-5-11.84,78.58,78.58,0,0,1-1.67-10c-.44-4-.73-8.36-.84-13.16s-.21-9.61-.33-14.5-.17-9.44-.17-13.66c0-5.56.13-11.28.33-17.17s.57-11.49,1-16.84,1-10.15,1.67-14.49a45.36,45.36,0,0,1,2.69-10.45,40.07,40.07,0,0,1,15.71-20Q377,324.63,395.83,324.63ZM395.16,349a24.5,24.5,0,0,0-12.08,3,19.4,19.4,0,0,0-8.35,10.63c-1.32,3.09-2.22,9.57-2.66,19.43s-.77,21.45-1,34.73q0,11,.34,21.44a66.92,66.92,0,0,0,2.09,16.12q4.64,15.3,21.85,15.27a19.21,19.21,0,0,0,12.22-4.17,25.33,25.33,0,0,0,8-10.78,31,31,0,0,0,1.32-6.17c.44-3,.82-6.53,1.15-10.63s.56-8.46.67-13.12.17-9.31.17-14,0-9.23-.17-13.79-.23-8.92-.34-13.12-.33-8-.66-11.3a38.07,38.07,0,0,0-1.49-8Q411.33,349,395.12,349Z"/>
    <path d="M511.18,324.63a60.73,60.73,0,0,1,23,3.66,35.38,35.38,0,0,1,14.21,10.17,39.66,39.66,0,0,1,7.71,15.33,102.59,102.59,0,0,1,3,19.16q.66,9.68,1,20.66t.33,19.66a359.86,359.86,0,0,1-2.09,38,55.71,55.71,0,0,1-6.68,21.67,39.84,39.84,0,0,1-12.22,13,44,44,0,0,1-15.54,6.27,84.21,84.21,0,0,1-16.38,1.67,53.82,53.82,0,0,1-17.9-2.68,42.5,42.5,0,0,1-12.87-7A35.58,35.58,0,0,1,468,474a50.57,50.57,0,0,1-5-11.84,75,75,0,0,1-1.7-10c-.43-4-.71-8.35-.83-13.16s-.21-9.61-.34-14.49-.16-9.45-.16-13.67c0-5.55.12-11.28.33-17.17s.57-11.49,1-16.83,1-10.16,1.7-14.5a43.65,43.65,0,0,1,2.67-10.44,40,40,0,0,1,15.77-20Q492.43,324.64,511.18,324.63ZM510.49,349a24.5,24.5,0,0,0-12.08,3,19.49,19.49,0,0,0-8.35,10.63c-1.32,3.09-2.22,9.57-2.66,19.43s-.77,21.45-1,34.73q0,11,.34,21.44a67.37,67.37,0,0,0,2,16.12q4.63,15.3,21.85,15.27a19.14,19.14,0,0,0,12.22-4.17,25.43,25.43,0,0,0,8-10.78,32.45,32.45,0,0,0,1.32-6.17c.43-3,.83-6.53,1.14-10.63s.57-8.46.67-13.12.17-9.31.17-14,0-9.23-.17-13.79-.23-8.92-.33-13.12-.34-8-.65-11.3a40.08,40.08,0,0,0-1.48-8C528.24,354.17,521.31,349,510.49,349Z"/>
    <path d="M616.39,493.59a60.61,60.61,0,0,1-10.82-1.17,30.31,30.31,0,0,1-12-5.33,39.88,39.88,0,0,1-10.67-12.16,51.62,51.62,0,0,1-6.16-21.66q-1-10-1.17-21t-.17-20.66c0-12,.27-23.27.84-33.84a97.06,97.06,0,0,1,5-27.49,39.89,39.89,0,0,1,12.85-18.49Q602.73,325,618.4,325a36.66,36.66,0,0,1,16.71,3.49,31.08,31.08,0,0,1,11.66,10.17h.67V270.84h26.21V491.58H647.33V478.92l-.67-.33a43.25,43.25,0,0,1-11.32,11.17Q629.39,493.59,616.39,493.59Zm8.86-25.66q11.07,0,16.71-7.33a29.5,29.5,0,0,0,5.71-18.67V376.61q0-11.67-5.37-18.66t-17.11-7a22.19,22.19,0,0,0-11.93,2.84,18.46,18.46,0,0,0-7.06,9.82,76.27,76.27,0,0,0-3.51,18.51c-.69,7.67-1,17.15-1,28.49q0,15.33.48,26.16A66.63,66.63,0,0,0,605,454.61a19,19,0,0,0,7.06,10.15A23.27,23.27,0,0,0,625.25,467.93Z"/>
  </g>
</svg>
