<svg width="20" height="23" viewBox="0 0 20 23" fill="none" xmlns="http://www.w3.org/2000/svg">
<path d="M18.685 11.8588L4.07072 21.9809C3.82421 22.2042 3.50728 22.3282 3.08469 22.3282C2.69733 22.3282 2.30996 22.2042 1.99302 21.9809L1.11264 21.3607C0.795705 21.187 0.619629 20.9637 0.619629 20.666C0.619629 20.3683 0.795705 20.1202 1.11264 19.8721L13.7549 11.1641L1.11264 2.4313C0.866136 2.20802 0.725275 1.93511 0.725275 1.6374C0.725275 1.33969 0.866136 1.11641 1.11264 0.942748L1.99302 0.248092C2.30996 0.0992366 2.69733 0 3.08469 0C3.50728 0 3.82421 0.0992366 4.07072 0.272901L18.685 10.395C18.9315 10.6183 19.0724 10.8664 19.0724 11.1641C19.0724 11.4618 18.9315 11.7099 18.685 11.958V11.8588Z" fill="#2BC2BD"/>
</svg>
